<svg width="166" height="13" viewBox="0 0 166 13" fill="none" xmlns="http://www.w3.org/2000/svg">
<path d="M102.116 0.708666C104.767 0.606976 107.516 0.483823 110.289 0.368586C114.543 0.191732 118.852 0.0335189 122.941 0.000129819C123.77 -0.00674563 123.724 0.297289 123.958 0.329043C124.597 0.416871 124.967 0.0472132 125.431 0.0571895C127.686 0.104483 129.794 0.0822068 132.006 0.119444C134.285 0.157518 133.242 1.13402 134.04 1.33515C135.6 1.72917 134.244 0.55068 134.841 0.254592C136.614 0.266209 138.405 0.336472 140.183 0.408828C139.754 0.538266 139.325 0.665278 138.891 0.786493C139.665 0.784692 140.778 0.935037 139.495 1.30023C139.784 1.37837 140.055 1.47211 140.352 1.54788C140.417 1.09919 141.784 1.01553 141.9 0.746832C142.016 0.478068 141.248 0.565695 141.252 0.542446C141.292 0.211343 144.464 0.551273 144.693 0.580045C145.298 0.656733 144.79 1.22791 145.3 1.17444C146.179 1.08284 145.553 -0.0213344 146.797 1.43218C147.254 0.929909 147.305 1.1807 147.906 1.19338C147.985 1.19481 147.914 0.915729 147.949 0.90717C148.85 0.666699 148.17 1.21407 148.176 1.24223C148.275 1.72059 149.243 1.4726 149.45 1.51158C152.048 1.99649 153.951 2.31975 156.676 2.358C157.265 2.36578 159.049 2.10798 159.621 2.16995C160.185 2.23111 159.896 2.58838 160.196 2.7446C160.638 1.89401 161.084 1.78633 162.16 2.29896C162.532 1.67673 162.499 2.16933 163.249 2.02129C163.873 1.89855 164.941 1.13043 165.654 1.72844C164.86 1.69944 164.952 1.99549 164.067 2.20709C163.772 2.27722 160.678 2.39807 160.93 3.01195C161.061 3.33195 162.076 2.99837 162.118 3.05674C162.361 3.39702 161.804 3.84511 161.291 3.71279C161.415 3.63807 161.565 3.56144 161.698 3.4864C160.543 3.09078 161.385 4.73574 160.468 3.30454C160.355 3.12901 160.39 2.94065 160.207 2.75633C160.173 2.83638 160.396 3.02415 160.211 3.06563C160.022 3.10752 159.649 2.74927 159.606 3.06366C159.542 3.52092 160.322 3.31438 160.382 3.33888C160.383 3.33611 160.383 3.33335 160.384 3.33058C160.915 3.5536 159.824 3.61927 159.773 3.66411C159.445 3.95907 159.683 4.16906 159.184 4.42066C158.899 4.56401 158.16 4.51119 157.889 4.56371C157.621 4.61724 158.049 4.81754 157.868 4.87005C157.688 4.92255 157.456 4.76711 157.245 4.82807C157.154 4.85485 157.167 5.09446 157.123 5.10439C156.652 5.2132 156.946 4.7036 156.517 4.74904C156.239 4.779 155.321 5.27656 155.97 5.39256C155.662 5.45162 155.361 5.49749 155.054 5.54601C155.251 5.61055 155.453 5.652 155.646 5.72926C155.062 5.6353 154.814 6.05479 154.452 6.09801C154.089 6.14114 153.746 5.66013 153.354 5.91427C152.519 6.45505 154.624 6.14515 154.89 6.22727C154.993 6.25958 154.614 6.65899 154.554 6.67213C154.287 6.72975 153.96 6.46503 153.753 6.48463C153.013 6.55669 152.572 6.93656 151.868 7.0347C149.471 7.36844 146.493 7.67518 144.216 7.83452C143.368 7.89355 142.843 7.50209 142.463 7.52694C141.572 7.58538 141.476 7.94586 140.699 7.99198C139.543 8.06177 137.902 7.80732 136.933 7.7739C136.263 7.75108 135.67 8.11739 135.496 8.13189C133.083 8.3401 130.143 8.43501 128.14 8.50915C127.198 8.54414 126.737 8.17187 126.543 8.19005C125.708 8.26751 125.944 8.59132 125.265 8.5815C124.898 8.57648 124.819 8.26051 124.769 8.24979C124.334 8.15994 124.263 8.57867 123.926 8.60407C121.993 8.75034 120.118 8.54339 118.199 8.57046C118.06 8.57217 118.066 8.38758 117.976 8.40017C117.591 8.45888 117.781 8.74263 117.377 8.77781C116.538 8.85229 115.673 8.83453 114.78 8.82894C114.691 8.82841 114.643 8.59305 114.441 8.60001C114.239 8.60708 114.093 8.83687 113.775 8.83544C112.944 8.83189 112.116 8.59204 111.236 8.60805C111.091 8.61103 110.921 8.90251 110.702 8.90702C110.665 8.90781 110.626 8.90789 110.587 8.90733C109.907 8.89771 108.963 8.69857 108.408 8.709C106.472 8.7472 104.693 8.97186 102.87 9.03761C102.442 9.05244 102.053 8.80146 101.83 8.80295C101.327 8.80693 101.715 9.04337 101.206 9.06219C97.0489 9.21367 92.8714 9.24589 88.6655 9.41272C87.0138 9.47777 85.012 9.80631 83.413 9.79072C82.748 9.78346 82.6155 9.44246 82.1459 9.45571C81.3082 9.48087 81.1718 9.92871 80.2899 10.0037C79.5861 10.0629 78.7627 9.64933 78.0301 9.70222C77.2976 9.75511 76.9741 10.1961 76.1333 10.2769C75.4408 10.343 74.4651 10.1822 73.7106 10.24C66.7968 10.7714 59.9848 11.1857 53.0065 11.0933C50.5442 11.0606 47.819 11.2174 45.2639 10.8844C45.0239 10.8528 45.3744 10.4256 44.6125 10.5394C44.2031 10.601 43.6417 10.9781 42.6924 11.0291C37.0477 11.3313 30.9962 10.7779 25.2584 11.1295C16.6635 11.6576 7.85072 14.9179 0.224329 10.8637C-0.149765 10.6646 0.0128194 9.61924 0.22221 9.31654C0.433453 9.52027 0.63069 9.76412 0.852364 9.99479C1.07573 8.68787 1.04015 9.02737 2.04007 9.10905C2.6557 9.15996 2.14659 8.62213 2.4679 8.45321C2.88446 8.23487 4.85124 7.52447 4.49869 8.39714C4.61678 8.24385 4.72561 8.09715 4.84065 7.94712C6.27619 7.76673 7.66782 7.50273 9.06768 7.20699C9.30948 7.15539 9.31129 6.88537 9.56109 6.83358C10.2319 6.69254 10.774 6.85096 11.4686 6.7994C11.8459 6.77152 11.8874 6.45811 12.3829 6.46076C12.8781 6.46355 12.882 6.88454 13.5407 6.40384C13.0828 5.89144 15.0565 6.20592 15.7525 6.14907C15.8536 6.14134 16.6668 5.63824 17.1098 5.67734C17.5542 5.71538 18.2367 5.9948 18.9151 5.79898C19.2332 5.70698 19.415 5.33095 19.7604 5.29785C20.0034 5.27467 20.3073 5.59266 20.616 5.59557C20.9246 5.59845 21.5819 5.30575 21.7039 5.29705C22.1443 5.26381 21.6658 5.51155 21.9678 5.51264C23.4256 5.51426 25.1214 5.57884 26.5514 5.37346C26.7272 5.34848 26.4735 5.08514 26.4966 5.07526C27.6829 4.69987 27.0559 5.07641 27.3879 5.30852C27.7095 5.53295 29.9981 5.32448 29.9985 4.85129C30.0896 5.44064 30.5835 4.97082 30.7153 4.94883C31.2282 4.86375 31.1451 5.37931 31.639 5.20349C31.8203 5.13941 31.4513 4.80579 31.6487 4.80906C32.1364 4.81723 32.594 5.35792 33.244 5.39094C33.401 5.39912 33.4432 5.14968 33.7217 5.14835C34.0006 5.14715 35.1787 5.40936 34.6217 4.90586C35.3445 5.2997 35.479 5.06499 36.303 5.04777C36.5117 5.044 36.7943 5.43374 37.234 5.29448C37.3827 5.24724 37.3648 4.86269 37.5907 4.85165C38.1073 4.82531 38.6082 5.20656 39.2647 5.19939C40.4924 5.18696 41.7885 4.8614 43.0708 4.91642C43.4194 4.93163 43.3461 5.32145 43.8519 5.31127C43.9262 5.30868 44.5234 4.95293 44.8738 4.97218C45.0848 4.98372 46.1824 5.18075 46.4028 5.19197C46.7671 5.20955 46.819 4.8332 47.0205 4.89941C47.6033 5.09021 47.1609 5.65698 47.827 4.8795C48.0692 5.28913 48.4724 5.23322 48.62 5.74279C48.8358 5.17119 49.1601 5.70181 49.6103 5.49714C50.0606 5.29233 50.3971 4.18808 50.5488 5.35829C50.7572 5.20814 51.6579 4.93287 51.8106 4.90968C52.2608 4.84358 52.0305 5.17678 52.37 5.121C52.4298 5.11156 52.3591 4.89168 52.7453 4.90012C52.9987 4.90598 54.8524 4.85489 54.9641 4.88145C56.2389 5.18503 54.2838 5.12572 54.0191 5.37561C53.9688 5.31417 53.9188 5.25249 53.8652 5.19191C53.3036 5.10653 53.6388 5.59714 53.8958 5.70476C54.1528 5.81236 54.6176 5.57235 54.8336 5.72973C54.9412 5.80878 54.8973 6.41255 54.578 6.35097C54.9235 6.52441 54.4674 6.7362 54.6075 6.90564C54.7616 7.09137 56.2869 7.09694 56.2834 6.76522C55.9985 6.76361 55.6447 6.78742 55.3566 6.78384C54.9602 6.22096 56.0344 4.21391 57.1099 4.96317C57.89 5.50527 56.6525 6.0012 58.4345 5.46107C58.1571 5.44764 57.9213 5.40202 57.6691 5.38666C57.6273 4.95561 58.0516 5.41637 58.257 5.27159C58.3556 5.20087 57.7226 4.91672 58.2594 4.79606C58.7457 5.39757 59.0815 4.76371 59.8606 4.72915C59.6479 4.84688 59.4348 4.96406 59.2221 5.08179C60.5546 5.48381 57.5012 5.7384 60.0705 5.89973C59.763 5.9304 59.4563 5.93581 59.1477 5.97703C59.3057 6.19846 59.0887 6.87223 59.228 7.00812C59.5933 7.36482 60.107 7.12417 60.538 7.14156C60.7266 7.14863 60.6162 7.33236 60.632 7.33285C60.8904 7.34376 60.8243 7.08241 61.0497 7.05773C61.3335 7.02683 62.164 7.25415 62.2962 7.22032C62.6382 7.13379 62.0463 6.63417 62.0781 6.59419C62.289 6.33481 62.7451 6.52788 62.71 6.19946C61.6381 6.46375 58.516 6.28154 61.3123 5.6387C60.5175 5.13386 60.7161 4.39266 61.8301 4.29596C62.7516 4.21545 62.1662 4.53011 62.658 4.83649C62.7216 4.87477 63.9634 4.9861 64.0188 4.75544C63.9876 5.28333 64.4063 5.73522 64.1552 6.2875C64.1185 6.36862 63.61 6.35488 63.8023 6.78517C63.8984 7.00133 64.1691 7.46965 64.1379 7.75019C64.2355 7.55247 64.3369 7.33033 64.4358 7.12417C65.1941 7.04096 65.3095 7.24626 65.7379 7.59373C65.7136 7.4433 65.3073 6.82185 65.8974 6.99453C65.9277 7.00502 65.9616 7.23198 66.2619 7.33468C66.8688 7.54036 66.9963 7.60647 66.5599 8.29166C67.7872 7.86666 68.0805 8.60311 69.3452 8.34061C69.0622 7.48923 68.6223 7.71783 67.4631 7.92428C67.4054 7.72147 67.3746 7.51979 67.3152 7.31494C68.882 7.72449 68.1142 7.70401 68.9782 7.25796C69.1896 7.14868 70.3398 7.21755 69.937 6.65174C69.8419 6.51862 69.1303 6.55918 69.2045 6.34148C69.2188 6.30003 70.081 6.16572 70.1592 6.21855C71.1411 6.87022 69.4459 7.40751 72.0753 7.06571C72.1478 7.05583 72.1646 6.80452 72.3054 6.76471C72.5702 6.69035 72.5837 6.98034 72.8199 6.90505C73.0562 6.82957 73.3733 6.42784 73.7447 6.77601C74.4237 7.40991 72.8894 7.84171 72.188 7.51744C71.9381 8.38547 76.863 8.23241 77.1656 8.14831C78.4867 7.78184 76.2761 8.04396 76.1535 7.80989C76.1026 7.71083 76.0816 6.4333 75.5495 7.28133C75.3921 7.53262 76.0971 7.83188 75.6879 7.9817C75.2785 8.13151 75.4294 7.74986 75.3985 7.72468C75.2923 7.63837 74.8567 7.79313 74.7977 7.74181C73.8905 6.96356 73.9284 5.73835 75.1565 7.50337C75.6497 7.0775 74.4622 6.46764 75.0833 6.16862C75.8382 5.80519 76.4181 6.36783 76.5155 6.39069C77.6815 6.66078 76.3198 5.85743 77.7403 6.07968C78.5313 6.20333 76.5843 6.68635 78.3765 6.56809C79.8766 6.46844 79.0553 6.2009 79.1409 5.52454C79.1612 5.36629 79.9772 5.1446 78.8592 5.25296C78.8337 5.42925 78.782 5.66222 78.7165 5.82628C78.4372 5.70797 77.9484 4.84716 77.8015 4.82159C77.0834 4.70065 77.1338 5.15455 76.6946 4.63323C77.0154 5.20912 76.5144 4.87285 76.3353 5.00306C75.6704 5.48312 76.5691 5.62158 75.0203 5.08855C75.2291 5.35649 75.4187 5.62 75.6211 5.88711C75.4381 5.90295 75.255 5.91902 75.072 5.93486C74.7774 5.33903 73.8061 5.45046 74.6668 4.81013C73.6002 4.67408 73.1761 4.82102 72.9601 5.30011C72.9191 5.39156 72.761 5.43306 72.574 5.44826C72.6141 5.57945 72.6737 5.98705 72.6459 6.03827C72.3974 6.48882 71.9616 5.74068 72.0909 5.44479C71.9595 5.43544 71.8552 5.42272 71.8184 5.41693C71.5847 5.37983 72.0304 5.1008 71.8392 5.01715C71.7762 4.99 71.1244 5.07008 71.1081 4.96354C71.0053 4.28043 72.0984 4.73769 69.9241 4.41456C69.8937 5.04066 70.8924 4.86835 70.6578 5.54045C70.4061 6.26247 69.8084 5.32662 69.7156 6.20491C69.6648 6.06282 69.6403 5.9437 69.5951 5.78149C68.7344 6.19281 68.6974 5.4653 68.4247 5.31393C67.8953 5.01832 65.5131 5.14868 67.6755 5.70451C67.3647 5.77839 67.0462 5.81867 66.7367 5.88515C66.62 4.5827 66.8278 5.09547 65.3208 4.94852C64.9889 4.91599 64.8613 4.34582 64.5611 5.03881C64.5817 4.3686 63.6187 4.80668 63.5247 4.72872C62.9214 4.22142 65.0674 3.411 65.3871 4.58343C65.7377 4.11036 65.7576 4.71885 66.164 4.62391C66.7512 4.4868 66.8292 4.36544 67.5467 4.78999C68.2155 4.13319 64.8326 4.60607 66.8615 3.69482C68.891 2.78362 80.8627 1.89681 83.6549 1.67324C88.7135 1.26863 91.3722 1.0268 95.9246 0.905636C96.3737 0.893106 99.7605 0.714097 99.0818 1.46981C98.9843 1.57826 97.5362 1.90723 98.8066 2.43747C98.5405 2.1075 99.2679 1.8618 99.3283 1.82397C100.715 0.964595 99.8889 0.794841 102.116 0.708666ZM108.947 6.99892C106.034 6.93362 108.187 7.3478 107.621 8.47265C107.994 8.46277 108.366 8.45283 108.739 8.44295C108.639 8.37712 108.54 8.31148 108.439 8.24565C108.439 8.24567 108.439 8.24568 108.438 8.2457C108.607 7.83016 108.778 7.41445 108.947 6.99892ZM156.494 6.07834C156.386 6.22764 156.279 6.37717 156.161 6.52366C155.776 6.49196 155.391 6.46104 155.006 6.42934C155.048 6.32913 155.089 6.2278 155.131 6.1276C155.586 6.11592 156.039 6.10468 156.494 6.07834ZM71.787 7.69139C71.2291 7.30649 71.3033 8.02554 70.5694 7.72237C70.6765 8.25118 70.793 8.76807 70.9047 9.29146C71.4518 9.19355 71.5697 8.98692 72.1716 9.09607C72.0961 8.92754 72.0189 8.75804 71.9449 8.58841C71.8467 8.62856 71.7424 8.67398 71.6472 8.70983C71.4772 8.23681 72.4292 8.13209 71.7889 7.69023C71.7882 7.69062 71.7876 7.691 71.787 7.69139ZM66.2221 8.10009C65.9273 8.04105 64.7595 7.82118 64.6091 8.04703C64.0993 8.81279 67.3516 8.22456 64.9656 8.97284C64.9803 9.07727 64.9729 9.18035 64.9765 9.28412C65.4172 9.30549 65.8565 9.32181 66.3001 9.33573C66.262 8.92322 66.2635 8.51458 66.2221 8.10009ZM98.434 7.4122C97.9825 7.37034 95.8521 7.79655 96.5671 8.24526C96.7774 8.37658 97.7104 7.66639 98.075 7.68307C98.3111 7.69379 98.0602 8.07408 98.5202 7.92147C98.4939 7.75862 98.4749 7.57772 98.4328 7.41334C98.4332 7.41296 98.4336 7.41258 98.434 7.4122ZM99.2014 5.22361C98.739 5.30594 98.2709 5.40614 97.8055 5.49277C98.1617 5.90359 98.824 5.60858 98.8843 6.20208C98.7578 6.25165 98.6329 6.30091 98.5065 6.35049C98.4039 6.22384 98.3029 6.09702 98.202 5.97031C97.8117 6.3075 98.0605 6.45955 97.3095 6.39228C97.793 7.27567 97.8939 7.75536 99.1426 6.80097C98.9177 7.29728 99.2009 8.87898 99.871 7.71819C99.9964 7.50266 99.4369 7.38111 99.4295 7.34775C99.3296 6.93328 99.628 6.65613 99.5227 6.26498C99.4754 6.08805 99.1372 6.10258 99.0779 5.85673C99.0504 5.73676 99.36 5.38088 99.2014 5.22361ZM100.202 7.30815C100.067 7.56602 100.579 8.14888 101.002 8.01234C101.661 7.80025 100.591 7.26618 100.202 7.30815ZM156.497 6.07771C156.496 6.07792 156.495 6.07813 156.494 6.07834C156.495 6.07778 156.495 6.07722 156.496 6.07665C156.496 6.077 156.497 6.07736 156.497 6.07771ZM67.7404 8.34003C67.4033 8.56702 66.8922 8.5535 66.9418 8.89394C66.7719 8.83264 66.6001 8.77248 66.4302 8.71118C66.4354 8.81388 66.4422 8.91674 66.4473 9.01839C66.9537 9.06478 67.4587 9.11143 67.9652 9.15886C67.8924 8.8862 67.8242 8.61231 67.7404 8.34003ZM62.2387 8.29251C61.6037 8.28006 62.1513 8.7265 62.02 8.95588C61.8888 9.18527 61.3178 9.02232 61.3954 9.34211C61.7689 9.34168 62.1585 9.34074 62.5367 9.33908C62.4249 8.99212 62.3429 8.63764 62.2374 8.29255C62.2378 8.29254 62.2383 8.29252 62.2387 8.29251ZM120.824 6.95078C120.39 6.86505 120.553 6.50412 119.719 6.94923C119.72 6.94921 119.72 6.94919 119.721 6.94917C120.539 7.21154 121.588 7.4342 122.469 7.12197C121.911 6.76669 121.506 7.08452 120.824 6.95078ZM73.3271 8.6858C73.4988 8.39831 72.6452 8.19303 72.4678 8.46077C72.1807 8.89412 73.0654 9.12247 73.3271 8.6858ZM138.102 3.85417C138.726 2.9658 137.453 2.03753 136.17 2.50244C136.059 2.54309 136.906 2.78909 136.664 2.96668C136.64 2.98419 136.179 2.97964 136.069 3.10398C135.96 3.22861 136.089 3.50451 135.907 3.62853C135.587 3.84534 134.834 3.49062 134.598 3.76877C134.567 3.80603 135.039 4.16457 135.068 4.17779C135.547 4.38795 135.984 3.88248 136.057 3.87669C136.431 3.84682 136.387 4.23265 136.485 4.31958C136.67 4.48303 136.979 4.30239 137.001 4.31421C137.582 4.63101 136.279 4.58004 136.108 4.72465C135.649 5.11465 136.098 5.44661 134.972 5.69708C134.865 5.72069 133.576 5.74313 135.215 6.11624C132.058 7.1235 136.835 6.56992 137.348 6.35451C137.584 6.25468 137.209 5.90148 137.348 5.73174C137.667 5.34354 138.231 5.25736 138.161 4.72825C138.013 3.61595 137.296 4.37323 136.777 4.20331C136.822 3.95906 136.835 3.72196 136.926 3.48136C136.784 3.80568 138.057 3.92097 138.103 3.85636C138.103 3.85563 138.102 3.8549 138.102 3.85417ZM130.076 5.41128C129.349 5.09949 129.424 5.80228 128.754 5.42229C128.197 6.07514 129.337 5.99283 129.471 6.02385C130.084 6.16211 130.094 6.85052 130.707 6.61718C130.48 6.21759 130.291 5.81236 130.076 5.41128ZM136.315 5.48419C135.849 5.85763 136.706 5.82166 136.743 5.88864C137.147 6.59902 134.575 6.54801 136.315 5.48419ZM95.5949 6.09214C95.3507 6.07651 95.517 6.41268 95.306 6.52106C95.0946 6.6303 94.3496 6.36366 94.3754 6.57554C94.4018 6.78787 95.7676 7.29321 94.4202 7.46002C94.4702 7.57797 94.4578 7.66769 94.4837 7.77495C94.8553 7.76513 95.2304 7.75727 95.602 7.74744C95.3861 7.41046 95.1645 7.05576 94.9569 6.73003C95.156 6.4489 95.2855 6.79605 95.2966 6.79567C95.2966 6.7953 95.2965 6.79494 95.2965 6.79457C95.6844 6.75344 96.1432 6.12672 95.5949 6.09214ZM114.79 6.4953C114.833 5.63765 114.292 6.6127 114.061 6.7269C113.829 6.84072 113.494 6.53546 113.628 6.89918C114.018 7.13978 114.785 6.59101 114.79 6.49421C114.79 6.49457 114.79 6.49494 114.79 6.4953ZM126.186 5.54879C125.593 5.77731 125.696 5.9963 124.953 5.76829C124.989 5.97399 125.024 6.1842 125.06 6.38676C125.643 6.37058 125.581 5.77199 126.265 5.98961C126.377 6.02561 126.157 6.51316 126.651 6.34166C126.496 6.09094 126.339 5.81216 126.186 5.54879ZM123.238 6.41905C123.926 6.36343 124.414 4.67179 123.171 5.47048C122.987 5.58981 122.72 6.46128 123.238 6.41905ZM101.951 5.82785C100.777 5.82058 102.118 6.04397 102.432 6.29034C99.7102 6.59124 102.738 6.20924 103.04 7.05457C103.365 6.79949 103.97 6.221 103.271 6.09614C102.98 6.04434 103.094 6.2952 103.077 6.29476C102.542 6.25039 102.592 5.83172 101.951 5.82785ZM131.319 5.32666C131.276 5.34079 131.355 5.62711 131.216 5.68973C131.077 5.75193 130.751 5.56099 130.726 5.73928C130.701 5.91867 131.345 6.0346 131.537 5.89785C131.728 5.75985 131.715 5.20151 131.319 5.32666ZM126.795 4.77229C126.217 5.00052 127.212 6.03077 127.339 6.02136C128.456 5.92666 126.774 5.11025 126.795 4.77229ZM104.611 3.92607C103.216 4.51577 104.283 5.41861 105.188 5.95008C105.301 5.8317 105.417 5.71304 105.528 5.59576C105.021 6.30889 104.114 7.02793 106.164 6.35021C105.025 6.22634 105.967 6.00659 105.973 5.96717C106.054 4.68696 104.395 5.3381 104.612 3.92603C104.611 3.92604 104.611 3.92606 104.611 3.92607ZM133.235 5.56427C133.85 5.53853 135.441 5.2623 134.676 4.73234C134.195 5.0096 133.716 5.287 133.235 5.56427ZM81.4759 4.8087C80.9621 4.50834 80.4989 4.52994 79.88 4.57257C80.4541 5.01575 80.0892 5.08171 79.9051 5.20159C79.6257 5.38213 80.3164 5.34401 80.3195 5.3751C80.3222 5.81513 79.8838 5.8988 80.8869 5.85327C80.6442 6.01506 80.4047 6.17791 80.1619 6.33865C80.9276 6.33191 81.1177 6.6124 81.6151 6.94584C81.1142 6.10616 81.7531 6.62054 82.301 6.17491C82.5745 5.95183 81.7373 4.96237 81.474 4.80877C81.4746 4.80875 81.4753 4.80872 81.4759 4.8087ZM103.144 3.80524C103.004 3.96454 102.878 4.17781 102.744 4.35898C102.591 4.38113 102.438 4.40123 102.285 4.42337C102.261 4.28768 102.24 4.1456 102.214 4.01527C102.01 3.98263 102.096 4.16973 102.036 4.18966C102.036 4.18893 102.036 4.18819 102.036 4.18746C101.184 4.46922 100.83 4.45323 100.141 4.05523C100.155 4.47301 100.17 4.89078 100.184 5.30856C100.335 5.26343 100.487 5.21922 100.637 5.17514C100.71 4.94784 100.783 4.72038 100.855 4.49308C101.035 4.61076 101.213 4.72763 101.393 4.84531C101.531 4.75968 101.697 4.66884 101.816 4.58596C102.557 5.72921 100.938 4.99151 100.94 5.47674C100.942 5.78867 102.544 5.71908 102.767 5.49593C102.8 5.4633 102.423 4.60587 103.025 5.03842C103.119 5.10657 103.217 6.98662 103.796 5.44132C103.879 5.22208 103.523 4.06441 103.144 3.80524ZM97.3032 3.40184C98.2463 4.57379 94.8762 3.41741 96.3459 4.35759C95.9558 4.92474 96.0315 4.91489 96.4611 5.39131C96.4989 5.43404 96.2193 5.59589 96.2442 5.61435C96.6393 5.87158 97.099 5.71182 97.1194 6.2038C97.2227 6.17394 97.32 6.14718 97.4234 6.11733C96.9728 5.66883 97.6527 5.3331 97.9062 4.93246C98.0216 4.75097 97.7401 4.70606 97.837 4.54736C97.873 4.4894 98.2674 4.58884 98.2778 4.42589C98.2982 4.0575 98.0355 3.56979 97.6103 3.31361C97.6103 3.31325 97.6103 3.31288 97.6103 3.31252C97.5069 3.34028 97.4066 3.37304 97.3032 3.40184ZM116.596 3.72903C116.773 4.38888 117.394 4.55782 116.225 4.92431C116.288 5.05329 116.352 5.18112 116.415 5.3101C116.614 5.29161 116.807 5.27341 117.009 5.25586C117.547 3.27493 118.732 5.44784 117.974 4.08271C117.891 3.93433 117.425 4.11963 117.877 3.6931C117.876 3.69276 117.876 3.69241 117.875 3.69207C117.228 3.84072 117.155 4.07927 116.596 3.72903ZM112.254 4.34512C110.801 5.79722 114.357 5.05361 113.746 4.70306C113.691 4.67136 112.161 5.02595 112.254 4.34512ZM124.262 2.7061C123.588 2.70549 123.57 3.46222 123.647 3.73179C123.725 4.00219 124.181 3.71027 124.243 3.75111C124.444 3.88591 124.032 3.99399 124.293 4.1792C124.379 4.2393 125.561 4.46757 125.614 4.43318C125.906 4.24213 125.448 3.63424 125.531 3.55993C125.801 3.31637 126.19 3.62733 126.259 3.2932C126.408 2.58021 125.73 3.34689 125.612 3.36309C125.254 3.4092 125.271 3.01014 125 2.93979C124.728 2.86958 124.558 3.01204 124.32 2.99211C124.241 2.98545 124.297 2.70743 124.262 2.7061ZM122.092 4.37864C122.775 3.78242 121.041 3.22049 120.843 3.36143C120.259 3.77995 121.765 4.6632 122.092 4.37864ZM99.6226 5.1391C100.251 4.70222 98.7413 4.41912 98.3187 4.6009C98.4042 4.77033 99.4063 5.28948 99.6226 5.1391ZM105.003 3.91458C104.416 4.06428 105.233 4.97054 105.725 4.93863C105.993 4.31496 105.725 4.44607 105.402 4.43215C105.079 4.41798 105.46 3.79795 105.003 3.91458ZM131.589 3.13347C131.461 3.12818 129.423 3.70714 130.612 3.87665C130.702 3.88924 132.138 3.74969 132.244 3.65145C132.457 3.45282 131.919 3.14926 131.589 3.13347ZM107.807 2.90918C107.512 3.45088 107.204 3.4545 107.514 4.06764C107.514 4.06762 107.514 4.06761 107.515 4.0676C106.73 4.28611 106.65 3.0124 106.48 3.04564C105.886 3.16218 106.484 4.04987 106.12 4.36091C106.981 4.05039 106.753 4.67096 107.416 4.68665C107.565 4.68986 108.147 4.30371 108.226 4.07299C108.305 3.84218 107.977 3.17005 107.807 2.90918ZM134.489 2.89975C133.788 2.72061 133.182 3.60301 134.15 3.70584C134.621 3.75659 134.917 3.00876 134.489 2.89975ZM65.1155 5.10684C65.2293 5.32869 65.3462 5.54949 65.4678 5.76897C65.2137 5.83244 64.9594 5.89706 64.7053 5.96159C64.9052 5.88317 65.1054 5.80583 65.3068 5.72842C64.8235 5.66651 64.5895 5.26388 65.1142 5.10689C65.1146 5.10687 65.1151 5.10686 65.1155 5.10684ZM48.0005 5.53247C47.7779 5.32279 47.3777 6.01012 47.4333 6.06071C47.8515 6.43751 48.3094 5.82319 48.0005 5.53247ZM98.601 3.12951C97.7984 3.06334 98.3862 4.13765 98.8788 4.19549C98.5717 3.99683 99.0564 3.16717 98.601 3.12951ZM54.0191 5.37561C54.0942 5.46711 54.1698 5.5586 54.2535 5.64995C53.9961 5.52805 53.9492 5.44166 54.0191 5.37561ZM131.228 2.17922C131.104 2.09958 130.199 2.06179 130.08 2.16984C129.835 2.39691 130.56 2.97606 130.968 2.77591C131.013 2.75437 131.353 2.25892 131.227 2.17928C131.227 2.17926 131.228 2.17924 131.228 2.17922ZM64.0196 4.72573C64.0214 4.73614 64.021 4.74615 64.0188 4.75544C64.0193 4.74565 64.0188 4.73557 64.0196 4.72573ZM29.9898 4.80158C29.9953 4.81837 29.9985 4.83511 29.9985 4.85129C29.996 4.83549 29.9916 4.81893 29.9898 4.80158ZM124.831 1.47314C124.495 0.441758 123.822 1.02009 124.387 1.51616C124.418 1.54216 124.759 1.47364 124.831 1.47314Z" fill="#AE050A"/>
</svg>
